<svg xmlns="http://www.w3.org/2000/svg" viewBox="0 0 394.5 79.1" width="100%" height="100%" preserveAspectRatio="none"><defs><style>.cls-1{fill:#f37545;}.cls-2{fill:#fff;}</style></defs><g id="Layer_2"><g id="Layer_1-2"><path class="cls-1" d="M354.8,79.1H39.6A39.54,39.54,0,0,1,0,39.6H0A39.56,39.56,0,0,1,39.6,0H354.9a39.56,39.56,0,0,1,39.6,39.6h0A39.69,39.69,0,0,1,354.8,79.1Z"/><path class="cls-2" d="M41.86,22.6H58.53c4.11,0,7.34,1.13,9.39,3.18a8.23,8.23,0,0,1,2.46,6.1V32a8.35,8.35,0,0,1-4.72,7.75c4.16,1.59,6.72,4,6.72,8.82v.1c0,6.57-5.33,9.85-13.44,9.85H41.86Zm15,14.51c3.49,0,5.69-1.12,5.69-3.79v-.1c0-2.36-1.84-3.7-5.18-3.7H49.56v7.59Zm2.1,14.47c3.49,0,5.59-1.23,5.59-3.9v-.1c0-2.41-1.79-3.9-5.84-3.9H49.56v7.9Z"/><path class="cls-2" d="M77.61,40.65v-.1C77.61,30.34,85.67,22,96.74,22s19,8.26,19,18.47v.1c0,10.21-8,18.57-19.13,18.57S77.61,50.86,77.61,40.65Zm29.91,0v-.1c0-6.15-4.52-11.28-10.88-11.28s-10.77,5-10.77,11.18v.1c0,6.16,4.51,11.28,10.87,11.28S107.52,46.81,107.52,40.65Z"/><path class="cls-2" d="M121.52,40.65v-.1c0-10.21,8-18.57,19.13-18.57s19,8.26,19,18.47v.1c0,10.21-8.06,18.57-19.13,18.57S121.52,50.86,121.52,40.65Zm29.9,0v-.1c0-6.15-4.51-11.28-10.87-11.28s-10.78,5-10.78,11.18v.1c0,6.16,4.52,11.28,10.88,11.28S151.42,46.81,151.42,40.65Z"/><path class="cls-2" d="M167,22.6h7.9V38.29L189.48,22.6H199L184.4,37.83,199.68,58.5h-9.49L179.06,43.22l-4.15,4.31v11H167Z"/><path class="cls-2" d="M220.45,22.6h7.29l16.82,22.11V22.6h7.8V58.5h-6.72L228.25,35.68V58.5h-7.8Z"/><path class="cls-2" d="M259.69,40.65v-.1c0-10.21,8.05-18.57,19.13-18.57s19,8.26,19,18.47v.1c0,10.21-8.05,18.57-19.13,18.57S259.69,50.86,259.69,40.65Zm29.9,0v-.1c0-6.15-4.51-11.28-10.87-11.28S268,34.29,268,40.45v.1c0,6.16,4.51,11.28,10.87,11.28S289.59,46.81,289.59,40.65Z"/><path class="cls-2" d="M300.36,22.6h8.47l7.44,24.31,8.05-24.41h6.77l8.05,24.41,7.44-24.31h8.26L342.58,58.76H335.7l-8.1-23.49-8.1,23.49h-6.88Z"/></g></g></svg>