<svg version="1.1" id="Layer_1" xmlns="http://www.w3.org/2000/svg" xmlns:xlink="http://www.w3.org/1999/xlink" x="0px" y="0px" viewBox="0 0 548.8 66.3" style="enable-background:new 0 0 548.8 66.3;" xml:space="preserve" width="100%" height="100%" preserveAspectRatio="none"><style type="text/css"> .st0{fill:#F37545;} .st1{fill:#FFFFFF;} </style><g><path d="M14.9,66.3C6.2,66.3,0,60.9,0,51.6V1.2h8v50.7c0,4.8,2.3,7.3,7,7.3c4.8,0,7-2.5,7-7.3V1.2h7.9v50.5 C29.9,60.9,23.7,66.3,14.9,66.3z"/><path d="M67.3,65.2L53.9,33.4l-4.2-10.8v42.6h-7.6v-64h6.8l12.6,32.3l3.9,10.9V1.2h7.6v64H67.3z"/><path d="M98.9,66.3c-9,0-14.9-6-14.9-14.3v-5.9h7.9v5c0,5.4,2.5,8.5,7,8.5c4.7,0,7-3,7-7.4c0-6-2.4-10.3-8.9-16.2 c-5.9-5.2-12.3-12.6-12.3-21c0-8.6,5-15.1,14.5-15.1c8.7,0,14.2,6,14.2,14.4v6h-7.6v-5.1c0-4.9-2.1-8.3-6.8-8.3 c-4.2,0-6.4,2.5-6.4,6.5c0,6.2,2.5,9.9,10,16.7c7.4,6.6,11.2,12.7,11.2,20.5C113.8,61.1,106.9,66.3,98.9,66.3z"/><path d="M140.1,8.6v56.6h-8V8.6h-10.9V1.2h29.5v7.4H140.1z"/><path d="M173.7,66.3c-9.8,0-15.1-6.6-15.1-15.8V15.8c0-9,5.3-15.8,15.1-15.8c9.8,0,15.1,6.7,15.1,15.8v34.8 C188.8,59.7,183.5,66.3,173.7,66.3z M180.9,14.9c0-4.3-2.4-7.6-7.1-7.6c-4.8,0-7.1,3.3-7.1,7.6v36.5c0,4.4,2.3,7.6,7.1,7.6 c4.7,0,7.1-3.2,7.1-7.6V14.9z"/><path d="M216.2,38.7h-7.6v26.4h-8v-64h15.6c8.2,0,12.9,4.3,12.9,13.2v11.3C229.1,34.4,224.4,38.7,216.2,38.7z M221,13.9 c0-3.7-1.3-5.6-4.7-5.6h-7.7v23.5h7.7c3.4,0,4.7-2.1,4.7-5.7V13.9z"/><path d="M255,38.7h-7.6v26.4h-8v-64H255c8.2,0,12.9,4.3,12.9,13.2v11.3C267.9,34.4,263.2,38.7,255,38.7z M259.8,13.9 c0-3.7-1.3-5.6-4.7-5.6h-7.7v23.5h7.7c3.4,0,4.7-2.1,4.7-5.7V13.9z"/><path d="M296.7,65.2l-2.6-14.7h-11.3l-2.7,14.7h-7.6l12-64h8.5l11.9,64H296.7z M288.5,16L284,43.4h8.8L288.5,16z"/><path d="M329.7,65.2h-16v-64h15.7c8.2,0,12.7,4,12.7,12.9v8c0,5.7-2.1,9.1-6.8,10.4c5.2,1.2,7.2,5,7.2,10.5v9.4 C342.5,61.1,337.9,65.2,329.7,65.2z M334.2,13.7c0-3.4-1.3-5.4-4.8-5.4h-7.6v21.2h6.7c3.7,0,5.7-2.2,5.7-6.2V13.7z M334.5,42.2 c0-4-2-6.2-5.7-6.2h-7v22h7.9c3.4,0,4.8-2,4.8-5.3V42.2z"/><path d="M353.7,65.2v-64h8v56.6h16.6v7.4H353.7z"/><path d="M388.4,65.2v-64h25.1v7.3h-17.1v19.9h12.4v7h-12.4v22.5h17.1v7.3H388.4z"/><path d="M456.9,39.7v25.5h-8V39.7L436.3,1.2h8.3l8.7,29.7l8.7-29.7h7.9L456.9,39.7z"/><path d="M492.2,66.3c-9.8,0-15.1-6.6-15.1-15.8V15.8c0-9,5.3-15.8,15.1-15.8c9.8,0,15.1,6.7,15.1,15.8v34.8 C507.3,59.7,502,66.3,492.2,66.3z M499.3,14.9c0-4.3-2.4-7.6-7.1-7.6c-4.8,0-7.1,3.3-7.1,7.6v36.5c0,4.4,2.3,7.6,7.1,7.6 c4.7,0,7.1-3.2,7.1-7.6V14.9z"/><path d="M533.8,66.3c-8.7,0-14.9-5.5-14.9-14.7V1.2h8v50.7c0,4.8,2.3,7.3,7,7.3c4.8,0,7-2.5,7-7.3V1.2h7.9v50.5 C548.8,60.9,542.6,66.3,533.8,66.3z"/></g></svg>