<svg version="1.1" id="Layer_1" xmlns="http://www.w3.org/2000/svg" xmlns:xlink="http://www.w3.org/1999/xlink" x="0px" y="0px" viewBox="0 0 512.1 92.6" style="enable-background:new 0 0 512.1 92.6;" xml:space="preserve" width="100%" height="100%" preserveAspectRatio="none"><style type="text/css"> .st0{fill:#F37545;} .st1{fill:#FFFFFF;} </style><g><path d="M0,0.6h25V6H5.9v9.2h17v5.4h-17v13.7H0V0.6z"/><path d="M32.5,0.6h15c4.2,0,7.5,1.2,9.7,3.4C59,5.8,60,8.3,60,11.2v0.1c0,5.5-3.3,8.8-8,10.2l9.1,12.7h-7l-8.3-11.7h-7.4v11.7h-5.9 V0.6z M47.1,17.3c4.2,0,6.9-2.2,6.9-5.6v-0.1C54,7.9,51.4,6,47,6h-8.6v11.3H47.1z"/><path d="M68.2,0.6h25v5.3h-19v8.8H91v5.3H74.1v9h19.3v5.3H68.2V0.6z"/><path d="M101.4,0.6h5.5l18,23.3V0.6h5.8v33.7h-5l-18.6-23.9v23.9h-5.8V0.6z"/><path d="M138.8,17.5L138.8,17.5C138.8,7.8,146,0,156.2,0c6.2,0,10,2.2,13.2,5.2l-3.8,4.4c-2.7-2.5-5.6-4.2-9.4-4.2 c-6.4,0-11.1,5.3-11.1,11.9v0.1c0,6.6,4.7,12,11.1,12c4.1,0,6.8-1.7,9.7-4.4l3.8,3.8c-3.5,3.7-7.4,6-13.7,6 C146.2,34.8,138.8,27.2,138.8,17.5z"/><path d="M176.8,0.6h5.9v14h16.1v-14h5.9v33.7h-5.9V20h-16.1v14.2h-5.9V0.6z"/><path d="M229.7,0.6h15.1c3.8,0,6.9,1.1,8.8,3c1.5,1.5,2.3,3.3,2.3,5.6v0.1c0,4-2.3,6.2-4.8,7.5c3.9,1.3,6.7,3.6,6.7,8.2V25 c0,6-5,9.2-12.5,9.2h-15.6V0.6z M243.6,14.8c3.8,0,6.3-1.5,6.3-4.6v-0.1c0-2.6-2.1-4.3-5.9-4.3h-8.5v8.9H243.6z M245.3,29 c4,0,6.5-1.6,6.5-4.6v-0.1c0-2.8-2.3-4.5-6.9-4.5h-9.4V29H245.3z"/><path d="M277.3,0.3h5.5l14.8,33.9h-6.3l-3.4-8.1H272l-3.5,8.1h-6.1L277.3,0.3z M285.7,20.9l-5.8-13.5l-5.8,13.5H285.7z"/><path d="M304.3,0.6h5.9v28.3h17.7v5.4h-23.6V0.6z"/><path d="M346.9,0.3h5.5l14.8,33.9H361l-3.4-8.1h-15.9l-3.5,8.1h-6.1L346.9,0.3z M355.4,20.9l-5.8-13.5l-5.8,13.5H355.4z"/><path d="M383.8,21L370.5,0.6h7l9.4,14.9l9.5-14.9h6.8l-13.4,20.2v13.4h-6V21z"/><path d="M421.2,0.3h5.5l14.8,33.9h-6.2l-3.4-8.1H416l-3.5,8.1h-6.1L421.2,0.3z M429.7,20.9l-5.8-13.5l-5.8,13.5H429.7z"/><path d="M446.8,17.5L446.8,17.5C446.8,8,454,0,464.1,0c5.9,0,9.5,1.6,12.9,4.6L473.3,9c-2.6-2.2-5.1-3.6-9.4-3.6 c-6.2,0-10.9,5.4-10.9,11.9v0.1c0,6.9,4.6,12,11.4,12c3.2,0,6.1-1,8.1-2.5v-6.3h-8.6v-5.1h14.3v14.1c-3.3,2.8-8.1,5.2-14,5.2 C453.7,34.8,446.8,27.3,446.8,17.5z"/><path d="M486.9,0.6h25v5.3h-19v8.8h16.9v5.3h-16.9v9h19.3v5.3h-25.2V0.6z"/><path d="M166.7,88c-2.9,2.7-6.3,4.4-10.3,4.4c-6.3,0-11-3.8-11-9.6v-0.1c0-4.3,2.5-7.5,7.2-9.4c-1.9-2.5-2.8-4.6-2.8-7v-0.1 c0-4.5,3.7-8.5,9.7-8.5c5.3,0,8.9,3.6,8.9,8.1v0.1c0,4.4-2.9,7.1-7.4,8.8l5.8,5.9c1.3-1.9,2.5-4.1,3.6-6.5l4.5,2.4 c-1.3,2.7-2.8,5.3-4.6,7.7l5.3,5.4l-4.4,3.1L166.7,88z M163.3,84.6l-7.5-7.6c-3.1,1.3-4.5,3.4-4.5,5.6v0.1c0,2.8,2.4,4.9,5.6,4.9 C159.3,87.5,161.4,86.4,163.3,84.6z M163.1,66.2L163.1,66.2c0-2.4-1.6-3.9-3.8-3.9c-2.4,0-4,1.7-4,4v0.1c0,1.7,0.7,2.9,2.5,5 C161.3,70.2,163.1,68.7,163.1,66.2z"/><path d="M196.1,75.2L196.1,75.2c0-9.5,7.2-17.5,17.4-17.5c5.9,0,9.5,1.6,12.9,4.6l-3.8,4.5c-2.6-2.2-5.1-3.6-9.4-3.6 c-6.2,0-10.9,5.4-10.9,11.9v0.1c0,6.9,4.6,12,11.4,12c3.2,0,6.1-1,8.1-2.5v-6.3h-8.6v-5.1h14.3v14.1c-3.3,2.8-8.1,5.2-14,5.2 C203,92.5,196.1,85,196.1,75.2z"/><path d="M236.3,58.3h5.9v28.3h17.7v5.4h-23.6V58.3z"/><path d="M265.5,75.2L265.5,75.2c0-9.6,7.3-17.5,17.6-17.5c10.3,0,17.5,7.8,17.5,17.3v0.1c0,9.5-7.3,17.4-17.6,17.4 S265.5,84.7,265.5,75.2z M294.5,75.2L294.5,75.2c0-6.6-4.8-12.1-11.4-12.1s-11.3,5.3-11.3,11.9v0.1c0,6.5,4.8,12,11.4,12 S294.5,81.7,294.5,75.2z"/><path d="M306.6,87l3.6-4.2c3.2,2.8,6.4,4.4,10.6,4.4c3.7,0,6-1.7,6-4.2v-0.1c0-2.4-1.3-3.7-7.6-5.1c-7.2-1.7-11.2-3.8-11.2-10v-0.1 c0-5.8,4.8-9.8,11.5-9.8c4.9,0,8.8,1.5,12.2,4.2l-3.2,4.5c-3-2.3-6.1-3.5-9.1-3.5c-3.5,0-5.5,1.8-5.5,4v0.1c0,2.6,1.5,3.8,8,5.3 c7.1,1.7,10.8,4.3,10.8,9.9v0.1c0,6.3-5,10-12,10C315.4,92.4,310.6,90.6,306.6,87z"/><path d="M338.3,87l3.6-4.2c3.2,2.8,6.4,4.4,10.6,4.4c3.7,0,6-1.7,6-4.2v-0.1c0-2.4-1.3-3.7-7.6-5.1c-7.2-1.7-11.2-3.8-11.2-10v-0.1 c0-5.8,4.8-9.8,11.5-9.8c4.9,0,8.8,1.5,12.2,4.2l-3.2,4.5c-3-2.3-6.1-3.5-9.1-3.5c-3.5,0-5.5,1.8-5.5,4v0.1c0,2.6,1.5,3.8,8,5.3 c7.1,1.7,10.8,4.3,10.8,9.9v0.1c0,6.3-5,10-12,10C347.2,92.4,342.3,90.6,338.3,87z"/></g></svg>