<svg version="1.1" id="Layer_1" xmlns="http://www.w3.org/2000/svg" xmlns:xlink="http://www.w3.org/1999/xlink" x="0px" y="0px" viewBox="0 0 313.7 240.1" style="enable-background:new 0 0 313.7 240.1;" xml:space="preserve" width="100%" height="100%" preserveAspectRatio="none"><style type="text/css"> .st0{fill:#F37545;} .st1{fill:#FFFFFF;} </style><g><path d="M41.8,0.5h24v5.2H47.4v8.8h16.3v5.2H47.4v13.1h-5.7V0.5z"/><path d="M72.3,8.4h5.6v5.5c1.5-3.6,4.3-6.1,8.6-5.9v5.9h-0.3c-4.9,0-8.3,3.2-8.3,9.6v9.3h-5.6V8.4z"/><path d="M90.9,20.7L90.9,20.7c0-7.1,5.5-12.8,13-12.8c7.5,0,12.9,5.7,12.9,12.6v0.1c0,6.9-5.5,12.7-13,12.7 C96.4,33.3,90.9,27.6,90.9,20.7z M111.3,20.7L111.3,20.7c0-4.4-3.1-7.9-7.5-7.9c-4.5,0-7.3,3.5-7.3,7.7v0.1c0,4.2,3.1,7.8,7.4,7.8 C108.4,28.4,111.3,24.9,111.3,20.7z"/><path d="M123.4,8.4h5.6v3.7c1.6-2.2,3.7-4.2,7.4-4.2c3.5,0,5.9,1.7,7.2,4.3c2-2.6,4.6-4.3,8.2-4.3c5.3,0,8.5,3.4,8.5,9.3v15.5h-5.6 V18.9c0-3.9-1.8-5.9-4.9-5.9c-3,0-5.2,2.1-5.2,6v13.7h-5.6V18.8c0-3.8-1.8-5.9-4.9-5.9S129,15.3,129,19v13.7h-5.6V8.4z"/><path d="M183.5,0.5h14.4c4.1,0,7.2,1.2,9.3,3.2c1.7,1.8,2.7,4.1,2.7,7v0.1c0,5.3-3.2,8.5-7.7,9.8l8.7,12.2h-6.7l-7.9-11.2h-7.1 v11.2h-5.7V0.5z M197.5,16.5c4.1,0,6.6-2.1,6.6-5.4V11c0-3.5-2.5-5.3-6.7-5.3h-8.2v10.8H197.5z"/><path d="M215.6,28L219,24c3.1,2.7,6.2,4.2,10.2,4.2c3.5,0,5.7-1.6,5.7-4.1V24c0-2.3-1.3-3.5-7.3-4.9c-6.9-1.7-10.7-3.7-10.7-9.6 V9.4c0-5.5,4.6-9.4,11-9.4c4.7,0,8.4,1.4,11.7,4.1l-3,4.3c-2.9-2.2-5.8-3.3-8.8-3.3c-3.3,0-5.3,1.7-5.3,3.8v0.1 c0,2.5,1.5,3.6,7.6,5.1c6.8,1.7,10.4,4.1,10.4,9.4v0.1c0,6-4.7,9.6-11.5,9.6C224.1,33.2,219.4,31.5,215.6,28z"/><path d="M248.1,0.5h12.7c7.5,0,12.3,4.3,12.3,10.8v0.1c0,7.2-5.8,11-12.9,11h-6.4v10.4h-5.7V0.5z M260.4,17.2c4.3,0,7-2.4,7-5.8 v-0.1c0-3.8-2.7-5.8-7-5.8h-6.6v11.6H260.4z"/><path d="M24.6,61h15v16.1c15.2,2.6,24.6,15,24.6,31.7V122H47.9v-11.6c0-10.7-4.5-18.6-14.8-18.6c-9,0-14.1,6-14.1,15.4 c0,13.5,7.5,21.8,18,34.5c13.3,13.5,27,27.4,27,49c0,18.8-10.5,30.2-24.4,33v16.5h-15v-16.5C9.4,220.6,0,208.4,0,192.2v-13.1h16.7 v11.6c0,12.2,5.6,18.8,15.4,18.8c10.1,0,15.4-7.5,15.4-17.1c0-13.9-8.8-24.2-19.9-36.2c-12-11.6-25.3-27.4-25.3-45.6 c0-16.7,7.5-29.5,22.3-33V61z"/><path d="M116.4,165C101.3,186.3,96,201.7,96,212.5h48v18.2H76.1v-7.2c0-19.7,4.6-35.3,29.3-71c15.6-19.7,22.6-31.9,22.6-49 c0-12-5.3-18.7-16.3-18.7c-10.8,0-16.3,6.7-16.3,18v18.7H78.7v-18.2c0-18.7,10.8-35.3,32.6-35.3c24.7,0,34.1,16.3,34.1,37.7 C145.4,126.3,134.4,146,116.4,165z"/><path d="M193.4,233.6c-21.6,0-34.1-14.2-34.1-32.2v-14.9h16.6v13c0,11.3,7.2,17,18,17c11.3,0,16.3-7,16.3-17.5v-40.6 c-5,6.5-11.8,11.5-24.2,11.5c-17,0-26.9-12.5-26.9-28.1v-38.4c0-20.9,12.7-35.5,34.6-35.5c22.6,0,35,14.4,35,36v93.8 C228.7,219.7,215.3,233.6,193.4,233.6z M210.2,101.8c0-9.1-5.5-16.8-16.6-16.8c-10.8,0-16.6,6.7-16.6,15.6v38.9 c0,8.6,5.3,15.4,16.6,15.4c10.6,0,16.6-7,16.6-15.4V101.8z"/><path d="M297.8,88.9h-31l-2.6,47.8c4.3-6.7,12.5-11.3,24.5-11.3c15.1,0,24.5,11,24.5,26.4v47.8c0,20.6-12.7,34.1-34.6,34.1 c-21.6,0-32.2-15.6-32.2-32.9v-15.8H263V199c0,10.3,5.3,17.5,15.6,17.5s16.1-6,16.1-17.5v-44.9c0-8.9-5-14.2-13-14.2 c-10.3,0-16.1,7.7-18.5,16.1l-16.3-2.9l3.8-82.3h62.9C313,85.5,309.1,88.9,297.8,88.9z"/></g></svg>