<svg version="1.1" id="Layer_1" xmlns="http://www.w3.org/2000/svg" xmlns:xlink="http://www.w3.org/1999/xlink" x="0px" y="0px" viewBox="0 0 746.5 53.7" style="enable-background:new 0 0 746.5 53.7;" xml:space="preserve" width="100%" height="100%" preserveAspectRatio="none"><style type="text/css"> .st0{fill:#F37545;} .st1{fill:#FFFFFF;} </style><g><path d="M1.7,0.1h29.5c12.1,0.2,12.2,0.2,15.5,0.6c4.3,0.6,7.7,2.8,9.5,6.5c1.2,2.7,1.7,5.4,1.7,9.7c0,7.1-0.9,11.1-4.7,13.3 c0.4,0.3,0.8,0.7,1.2,1.2C56.8,34,57,36.3,57,44.7v7.1c0,1-0.8,1.8-1.7,1.8H49c-0.9,0-1.7-0.8-1.7-1.8V47c0-6.2,0-6.3-0.3-8.2 c-0.3-2.4-1.4-3.7-3.6-4c-1-0.2-1.6-0.3-3-0.3c-1.5-0.1-4.1-0.1-9.2-0.1H10.6c0,0-0.3,0-0.6,0.3c-0.3,0.3-0.3,0.6-0.3,0.6v16.5 c0,1-0.8,1.8-1.7,1.8H1.7c-0.9,0-1.7-0.8-1.7-1.8V1.9C0,0.9,0.8,0.1,1.7,0.1 M31.2,8.6H10.5c-0.4,0-0.8,0.4-0.8,0.8v15.9 c0,0.4,0.4,0.8,0.8,0.8h20.7h5.3c7,0,9.7-0.8,10.9-3.1c0.5-1,0.9-3.7,0.9-6c0-3.3-0.8-5.8-2.1-6.8C44.4,8.9,41.8,8.6,31.2,8.6"/><path d="M116.6,52.2c-3.6,0.9-4,1.4-16.6,1.4H89.9c-12.6,0-13-0.4-16.6-1.4c-7-1.7-9.9-9.2-9.9-25.9c0-10.6,1.4-17.9,3.9-21.3 c2.1-2.7,5.2-3.9,11.1-4.3c1.7-0.2,12-0.6,12-0.6h9.1c0,0,10.2,0.4,12,0.6c5.9,0.4,9,1.7,11.1,4.3c2.5,3.4,3.9,10.7,3.9,21.3 C126.5,43,123.6,50.4,116.6,52.2 M106.6,45c1.5-0.2,2.2-0.4,3.4-0.7c4.5-1.1,6.6-5.8,6.6-17.8c0-7.6-1-12.6-2.7-14.8 c-1.4-1.7-3.3-2.5-7.5-2.8c-1.2-0.1-8-0.4-8.5-0.5h-6.5c0,0-7.3,0.3-8.5,0.5c-4.2,0.3-6.1,1.1-7.5,2.8c-1.7,2.2-2.7,7.2-2.7,14.8 c0,12,2.1,16.7,6.6,17.8c1.3,0.3,2,0.6,3.4,0.7c1.5,0.2,3.8,0.2,8.3,0.2h7.2C102.8,45.3,105.1,45.2,106.6,45"/><path d="M134.9,0.1h32.7c14.5,0,18.9,0.7,23,5.3c3.6,4.1,4.6,9.6,4.6,21.3c0,11.1-1.5,18.1-5.6,22.2c-4,3.9-8.3,4.6-21.5,4.6h-33.1 c-0.9,0-1.7-0.8-1.7-1.8V1.9C133.2,0.9,134,0.1,134.9,0.1 M185.7,27.2v-0.5c0-7.3-0.9-12.3-2.7-14.6c-1.5-1.8-3.6-2.7-7.6-3 C174.2,9,172.2,9,167.2,9h-24c-0.4,0-0.8,0.4-0.8,0.8v34.3c0,0.4,0.4,0.8,0.8,0.8h24c5,0,7,0,8.2-0.1c4.1-0.3,6.2-1.1,7.6-3 C184.7,39.5,185.7,34.5,185.7,27.2"/><path d="M494.1,42.7c0.6,0,0.8-0.6,0.8-0.6l18.2-40.9c0.2-0.5,1-1,1.5-1h6.9c1.4,0,2.1,1.3,1.5,2.6l-22.3,49.8c-0.2,0.5-1,1-1.5,1 h-10.7c-0.6,0-1.3-0.5-1.6-1.1l-14.8-36.8c0,0-0.2-0.6-0.8-0.6c-0.7,0-0.8,0.5-0.8,0.5L455,52.5c-0.2,0.5-1,1.1-1.6,1.1h-10.8 c-0.5,0-1.3-0.5-1.5-1L419.4,2.7c-0.6-1.3,0.2-2.5,1.5-2.5h6.8c0.6,0,1.3,0.5,1.5,1l17.8,41c0,0,0.3,0.5,0.8,0.5 c0.5,0,0.8-0.5,0.8-0.5l17.2-41c0.2-0.5,1-1.1,1.6-1.1h7.9c0.6,0,1.3,0.5,1.6,1.1l16.5,40.9C493.3,42.1,493.6,42.7,494.1,42.7"/><path d="M516.2,53.6h-5.6c-1.4,0-2.2-1.4-1.5-2.7l23.5-49.8c0.2-0.4,1-0.9,1.5-0.9h10.1c0.5,0,1.2,0.5,1.5,0.9L572,50.9 c0.7,1.3,0,2.7-1.5,2.7h-6.9l-0.1,0c-0.8,0-1.6-0.4-2-1.1l-20.1-39c-0.1-0.3-0.8-0.7-1.1-0.7h-2.3c-0.3,0-1,0.4-1.1,0.7l-18.1,38.7 c-0.3,0.8-1.1,1.4-2.1,1.4L516.2,53.6z"/><path d="M538.1,30.3c0.1-0.2,0.6-0.5,0.8-0.5h1.7c0.2,0,0.7,0.3,0.8,0.5l11.9,21.9c0.4,0.8,0,1.5-0.8,1.5l-24,0 c-0.9,0-1.3-0.7-0.8-1.5L538.1,30.3z"/><path d="M380.4,0.7c0.2-0.2,0.9-0.5,1.2-0.5h8.8c1.7,0,2.4,1.8,1.2,3.1l-27,28.6c0,0-0.1,0.2-0.2,0.3c-0.1,0.2-0.1,0.3-0.1,0.3 v19.3c0,1-0.8,1.8-1.7,1.8h-6.3c-0.9,0-1.7-0.8-1.7-1.8V32.5c0,0,0-0.2-0.1-0.4c-0.1-0.1-0.2-0.3-0.2-0.3L327,3.2 c-1.2-1.3-0.5-3.1,1.2-3.1h8.6c0.3,0,1,0.3,1.2,0.5l20.9,21.9c0,0,0.3,0.3,0.6,0.3c0.4,0,0.6-0.3,0.6-0.3L380.4,0.7z"/><path d="M608,0.7c0.2-0.2,0.9-0.5,1.2-0.5h8.8c1.7,0,2.4,1.8,1.2,3.1l-27,28.6c0,0-0.1,0.2-0.2,0.3c-0.1,0.2-0.1,0.3-0.1,0.3v19.3 c0,1-0.8,1.8-1.7,1.8H584c-0.9,0-1.7-0.8-1.7-1.8V32.5c0,0,0-0.2-0.1-0.4c-0.1-0.1-0.2-0.3-0.2-0.3L554.5,3.2 c-1.2-1.3-0.5-3.1,1.2-3.1h8.6c0.3,0,1,0.3,1.2,0.5l20.9,21.9c0,0,0.3,0.3,0.6,0.3c0.4,0,0.6-0.3,0.6-0.3L608,0.7z"/><path d="M254.4,41.3c0.6-0.2,0.5-0.8,0.5-0.8V1.9c0-1,0.8-1.8,1.7-1.8h6.3c0.9,0,1.7,0.8,1.7,1.8v49.8c0,1-0.8,1.8-1.7,1.8h-10.7 c-0.3,0-1-0.3-1.2-0.5l-38.2-40c0,0-0.4-0.4-1-0.3c-0.6,0.2-0.6,0.8-0.6,0.8l0,38.2c0,1-0.8,1.8-1.7,1.8h-6.3 c-0.9,0-1.7-0.8-1.7-1.8V1.9c0-1,0.8-1.8,1.7-1.8h10.5c0.3,0,1,0.3,1.2,0.5l38.5,40.4C253.4,41.1,253.8,41.5,254.4,41.3"/><path d="M678.7,41.3c0.6-0.2,0.5-0.8,0.5-0.8V1.9c0-1,0.8-1.8,1.7-1.8h6.3c0.9,0,1.7,0.8,1.7,1.8v49.8c0,1-0.8,1.8-1.7,1.8h-10.7 c-0.3,0-1-0.3-1.2-0.5l-38.2-40c0,0-0.3-0.4-1-0.3c-0.6,0.2-0.6,0.8-0.6,0.8l0,38.2c0,1-0.8,1.8-1.7,1.8h-6.3 c-0.9,0-1.7-0.8-1.7-1.8V1.9c0-1,0.8-1.8,1.7-1.8h10.5c0.3,0,1,0.3,1.2,0.5l38.5,40.4C677.8,41.1,678.2,41.5,678.7,41.3"/><path d="M273,0.1h46.3c0.9,0,1.7,0.8,1.7,1.8v5.8c0,1-0.8,1.8-1.7,1.8h-37.5c0,0-0.4,0-0.6,0.3c-0.3,0.3-0.3,0.6-0.3,0.6v32.8 c0,0,0,0.4,0.3,0.6c0.3,0.3,0.6,0.3,0.6,0.3h37.5c0.9,0,1.7,0.8,1.7,1.8v5.8c0,1-0.8,1.8-1.7,1.8H273c-0.9,0-1.7-0.8-1.7-1.8V1.9 C271.4,1,272.1,0.1,273,0.1"/><path d="M319.4,21.2c0.9,0,1.7,0.8,1.7,1.8v5.8c0,1-0.8,1.8-1.7,1.8h-29.1c-0.9,0-1.7-0.8-1.7-1.8V23c0-1,0.8-1.8,1.7-1.8H319.4z"/><path d="M698.4,0.1h46.3c0.9,0,1.7,0.8,1.7,1.8v5.8c0,1-0.8,1.8-1.7,1.8h-37.5c0,0-0.3,0-0.6,0.3c-0.3,0.3-0.3,0.6-0.3,0.6v32.8 c0,0,0,0.4,0.3,0.6c0.3,0.3,0.6,0.3,0.6,0.3h37.5c0.9,0,1.7,0.8,1.7,1.8v5.8c0,1-0.8,1.8-1.7,1.8h-46.4c-0.9,0-1.7-0.8-1.7-1.8V1.9 C696.7,1,697.5,0.1,698.4,0.1"/><path d="M744.8,21.2c0.9,0,1.7,0.8,1.7,1.8v5.8c0,1-0.8,1.8-1.7,1.8h-29.1c-0.9,0-1.7-0.8-1.7-1.8V23c0-1,0.8-1.8,1.7-1.8H744.8z"/></g></svg>